<svg width="200" height="200" viewBox="0 0 200 200" xmlns="http://www.w3.org/2000/svg">
  <!-- 배경 원 -->
  <circle cx="100" cy="100" r="100" fill="#E3F2FD"/>
  
  <!-- 얼굴 -->
  <circle cx="100" cy="100" r="80" fill="#FFF3E0" stroke="#FFCC80" stroke-width="2"/>
  
  <!-- 눈 -->
  <circle cx="80" cy="85" r="8" fill="#424242"/>
  <circle cx="120" cy="85" r="8" fill="#424242"/>
  
  <!-- 눈 반짝임 -->
  <circle cx="82" cy="83" r="3" fill="#FFFFFF"/>
  <circle cx="122" cy="83" r="3" fill="#FFFFFF"/>
  
  <!-- 볼터치 -->
  <circle cx="65" cy="105" r="12" fill="#FFAB91" opacity="0.6"/>
  <circle cx="135" cy="105" r="12" fill="#FFAB91" opacity="0.6"/>
  
  <!-- 입 -->
  <path d="M 85 115 Q 100 125 115 115" stroke="#424242" stroke-width="3" fill="none" stroke-linecap="round"/>
  
  <!-- 머리카락 -->
  <path d="M 30 80 Q 50 30 100 35 Q 150 30 170 80 Q 165 60 140 50 Q 120 40 100 45 Q 80 40 60 50 Q 35 60 30 80" fill="#8D6E63"/>
  
  <!-- 옷 -->
  <path d="M 40 160 Q 60 140 100 145 Q 140 140 160 160 L 160 200 L 40 200 Z" fill="#2196F3"/>
  
  <!-- 옷 장식 -->
  <circle cx="100" cy="165" r="8" fill="#FFFFFF"/>
  <circle cx="85" cy="180" r="4" fill="#FFFFFF"/>
  <circle cx="115" cy="180" r="4" fill="#FFFFFF"/>
</svg>